# xmcd CD database file
#
# Track frame offsets:
#	150
#	10662
#	26603
#	56832
#	80430
#	97407
#	113928
#	146446
#	158398
#	175564
#	191141
#	212288
#	226022
#	239632
#
# Disc length: 3352 seconds
#
# Revision: 2
# Processed by: cddbd v1.5.2PL0 Copyright (c) Steve Scherf et al.
# Submitted via: CDex 1.51
#
DISCID=ae0d160e
DTITLE=Various Artist - Blues Breakers Cd3
DYEAR=2000
DGENRE=Blues
TTITLE0=John Lee Hooker - Boogie Chillen 2
TTITLE1=Jimmy Witherspoon - Gee Baby Ain´T I Been Good To You
TTITLE2=Brownie Mc Ghee and Sonny Terry - Everybody´s Blue
TTITLE3=B.B. King - You´ve Done Lost You´re Good Thing Now
TTITLE4=Ike and Tina Turner - I Smell Trouble
TTITLE5=Johnny Winter - Kind Hearted Woman
TTITLE6=Big Mama Thornton - Ball And Chain
TTITLE7=Canned Heat - Got My Mojo Working
TTITLE8=Mississippi John Hurt - Nobody´s Business But Mine
TTITLE9=Nina Simone - I Want A Little Sugar In May Bowl
TTITLE10=Mike Bloomfield - Cherry Red
TTITLE11=Lightning Hopkins - Mojo Hand
TTITLE12=Ray Charles - I´M Gonna Drown Myself
TTITLE13=John Mayall - Lost And Gone
EXTD=YEAR: 2000
EXTT0=
EXTT1=
EXTT2=
EXTT3=
EXTT4=
EXTT5=
EXTT6=
EXTT7=
EXTT8=
EXTT9=
EXTT10=
EXTT11=
EXTT12=
EXTT13=
PLAYORDER=
